<svg xmlns="http://www.w3.org/2000/svg" width="97" height="30" viewBox="0 0 97 30" fill="none">
  <path d="M41.1273 13.0195H25.919V6.50977H45.3777L41.1414 12.9913L41.1273 13.0195ZM40.4354 14.0786H32.803L22.4382 30H41.2332L45.4695 23.4902H34.2575L40.4142 14.0857L40.4354 14.0786ZM78.7315 12.9984H96.0862V6.51684H93.5162C92.2125 6.51705 90.9378 6.90162 89.8515 7.62245C88.7652 8.34329 87.9156 9.36839 87.4088 10.5695V6.51684H84.8388C83.5351 6.51705 82.2604 6.90162 81.1742 7.62245C80.0879 8.34329 79.2383 9.36839 78.7315 10.5695V6.51684H72.2217V12.9984H78.7315ZM72.2217 14.0857V21.2309H78.7315V14.1069L72.2217 14.0857ZM80.899 14.0857V21.2309H87.4088V14.1069L80.899 14.0857ZM89.5764 14.0857V21.2309H96.0862V14.1069L89.5764 14.0857ZM64.9706 14.0857C64.8594 14.4014 64.653 14.6748 64.3799 14.8682C64.1067 15.0616 63.7802 15.1655 63.4455 15.1655C63.1108 15.1655 62.7844 15.0616 62.5112 14.8682C62.238 14.6748 62.0316 14.4014 61.9205 14.0857H52.8407C52.7295 14.4014 52.5231 14.6748 52.25 14.8682C51.9768 15.0616 51.6503 15.1655 51.3156 15.1655C50.9809 15.1655 50.6545 15.0616 50.3813 14.8682C50.1081 14.6748 49.9017 14.4014 49.7905 14.0857H43.6479C43.7565 15.6377 44.3337 17.1202 45.3033 18.337C46.2729 19.5538 47.5891 20.4475 49.0777 20.8998C50.5663 21.3522 52.1572 21.3418 53.6398 20.8701C55.1225 20.3985 56.4269 19.4877 57.3806 18.2584C58.3342 19.4877 59.6387 20.3985 61.1213 20.8701C62.6039 21.3418 64.1948 21.3522 65.6835 20.8998C67.1721 20.4475 68.4883 19.5538 69.4579 18.337C70.4275 17.1202 71.0047 15.6377 71.1132 14.0857H64.9565H64.9706ZM51.3015 11.911C51.6366 11.9136 51.9628 12.0194 52.2357 12.214C52.5085 12.4085 52.7149 12.6824 52.8266 12.9984H61.9205C62.0283 12.6794 62.2334 12.4022 62.507 12.2058C62.7805 12.0095 63.1088 11.9039 63.4455 11.9039C63.7823 11.9039 64.1105 12.0095 64.3841 12.2058C64.6577 12.4022 64.8628 12.6794 64.9706 12.9984H71.1132C71.006 11.4457 70.4297 9.96229 69.4606 8.74448C68.4915 7.52668 67.1754 6.63194 65.6865 6.17877C64.1976 5.72559 62.6062 5.73536 61.1229 6.20676C59.6397 6.67815 58.3346 7.58894 57.3806 8.81854C56.4265 7.58894 55.1214 6.67815 53.6382 6.20676C52.155 5.73536 50.5636 5.72559 49.0747 6.17877C47.5858 6.63194 46.2697 7.52668 45.3006 8.74448C44.3315 9.96229 43.7552 11.4457 43.6479 12.9984H49.7905C49.9014 12.6818 50.1075 12.4074 50.3805 12.2127C50.6536 12.018 50.9802 11.9126 51.3156 11.911H51.3015ZM24.8388 12.9984V0H15.3354L1.92045 20.6096L0 23.5044H7.62532L9.50341 20.6166H18.329V23.4902H24.8388V14.1069H13.7609L18.329 7.09578V13.0195H24.8388" fill="white"/>
</svg>